<svg xmlns="http://www.w3.org/2000/svg"  viewBox="0 0 128 128" width="128px" height="128px"><path d="M 64 1 C 29.26 1 1 29.26 1 64 C 1 98.74 29.26 127 64 127 C 98.74 127 127 98.74 127 64 C 127 29.26 98.74 1 64 1 z M 64 7 C 95.43 7 121 32.57 121 64 C 121 95.43 95.43 121 64 121 C 32.57 121 7 95.43 7 64 C 7 32.57 32.57 7 64 7 z M 53 31 C 51.34 31 50 32.34 50 34 L 50 41 L 47 41 C 45.34 41 44 42.34 44 44 C 44 45.66 45.34 47 47 47 L 50 47 L 50 81 L 47 81 C 45.34 81 44 82.34 44 84 C 44 85.66 45.34 87 47 87 L 50 87 L 50 94 C 50 95.66 51.34 97 53 97 C 54.66 97 56 95.66 56 94 L 56 87 L 64 87 L 64 94 C 64 95.66 65.34 97 67 97 C 68.66 97 70 95.66 70 94 L 70 87 L 75 87 C 82.17 87 88 81.17 88 74 C 88 68.37 84.400625 63.589297 79.390625 61.779297 C 81.020625 59.609297 82 56.92 82 54 C 82 47.17 76.7 41.560781 70 41.050781 L 70 34 C 70 32.34 68.66 31 67 31 C 65.34 31 64 32.34 64 34 L 64 41 L 56 41 L 56 34 C 56 32.34 54.66 31 53 31 z M 56 47 L 69 47 C 72.86 47 76 50.14 76 54 C 76 57.86 72.86 61 69 61 L 56 61 L 56 47 z M 56 67 L 69 67 L 75 67 C 78.86 67 82 70.14 82 74 C 82 77.86 78.86 81 75 81 L 56 81 L 56 67 z"/></svg>