<?xml version="1.0" encoding="UTF-8"?>
<svg version="1.1" xmlns="http://www.w3.org/2000/svg" width="100" height="100">
<path d="M0 0 C0.78375 0.2475 1.5675 0.495 2.375 0.75 C3.375 2.75 3.375 2.75 3.375 8.75 C11.295 8.75 19.215 8.75 27.375 8.75 C27.375 6.77 27.375 4.79 27.375 2.75 C28.5625 0.8125 28.5625 0.8125 30.375 -0.25 C32.9375 -0.125 32.9375 -0.125 35.375 0.75 C37.5269437 3.97791555 37.57586443 5.03400809 37.375 8.75 C38.18324219 8.71519531 38.99148437 8.68039062 39.82421875 8.64453125 C40.89285156 8.61746094 41.96148437 8.59039062 43.0625 8.5625 C44.11824219 8.52769531 45.17398438 8.49289062 46.26171875 8.45703125 C49.7800826 8.78811944 51.55618938 9.66199213 54.375 11.75 C57.87655374 16.62716414 58.49708105 20.67754595 58.53613281 26.58496094 C58.54574036 27.7600824 58.5553479 28.93520386 58.56524658 30.14593506 C58.56949646 31.41262024 58.57374634 32.67930542 58.578125 33.984375 C58.58382507 35.29150452 58.58952515 36.59863403 58.59539795 37.94537354 C58.60588965 40.71260973 58.61174386 43.47981704 58.61523438 46.24707031 C58.62070663 49.77525409 58.64471467 53.30304953 58.67320633 56.83111191 C58.69643092 60.21552476 58.69828905 63.59988666 58.703125 66.984375 C58.7154718 68.24296326 58.7278186 69.50155151 58.74053955 70.79827881 C58.70359054 85.42140946 58.70359054 85.42140946 52.9375 91.1875 C48.74596554 93.74331369 45.20666994 93.88012212 40.34057617 93.91113281 C39.12218552 93.92074036 37.90379486 93.9303479 36.64848328 93.94024658 C35.33491348 93.94449646 34.02134369 93.94874634 32.66796875 93.953125 C31.30039978 93.95888223 29.93283081 93.96463989 28.56526184 93.97039795 C25.69967271 93.98088963 22.83411148 93.98674414 19.96850586 93.99023438 C16.31019366 93.99571256 12.65225487 94.01973343 8.99405956 94.04820633 C6.16891936 94.06690087 3.34386785 94.07204193 0.51867104 94.07357025 C-1.4814778 94.07803996 -3.48157902 94.09665278 -5.48164368 94.11553955 C-17.07294777 94.08720814 -17.07294777 94.08720814 -22.625 90.75 C-26.88305039 85.48346399 -27.74253317 81.51380829 -27.78613281 74.89916992 C-27.79574036 73.72082077 -27.8053479 72.54247162 -27.81524658 71.32841492 C-27.81949646 70.05859268 -27.82374634 68.78877045 -27.828125 67.48046875 C-27.83382507 66.17096756 -27.83952515 64.86146637 -27.84539795 63.51228333 C-27.85588846 60.74085097 -27.86174371 57.96944745 -27.86523438 55.19799805 C-27.87071203 51.66074854 -27.8947322 48.12388531 -27.92320633 44.58675671 C-27.9464023 41.19716861 -27.94828688 37.80763205 -27.953125 34.41796875 C-27.9654718 33.15421921 -27.9778186 31.89046967 -27.99053955 30.58842468 C-27.97120426 22.93570408 -27.74598164 17.34385765 -22.5625 11.375 C-19.14054935 8.50497687 -16.90359465 8.64065325 -12.5 8.6875 C-11.40429688 8.69652344 -10.30859375 8.70554687 -9.1796875 8.71484375 C-8.33664063 8.72644531 -7.49359375 8.73804688 -6.625 8.75 C-6.521875 7.63625 -6.41875 6.5225 -6.3125 5.375 C-6.085625 4.17875 -5.85875 2.9825 -5.625 1.75 C-2.625 -0.25 -2.625 -0.25 0 0 Z M-16.625 19.75 C-16.955 24.37 -17.285 28.99 -17.625 33.75 C4.155 33.75 25.935 33.75 48.375 33.75 C48.9787173 25.51769636 48.9787173 25.51769636 46.375 18.75 C44.85571962 18.67820036 43.33332518 18.66607993 41.8125 18.6875 C40.98621094 18.69652344 40.15992188 18.70554687 39.30859375 18.71484375 C38.35146484 18.73224609 38.35146484 18.73224609 37.375 18.75 C36.385 21.06 35.395 23.37 34.375 25.75 C32.725 25.75 31.075 25.75 29.375 25.75 C28.715 23.44 28.055 21.13 27.375 18.75 C19.455 18.75 11.535 18.75 3.375 18.75 C2.715 21.06 2.055 23.37 1.375 25.75 C-0.275 25.75 -1.925 25.75 -3.625 25.75 C-4.615 23.44 -5.605 21.13 -6.625 18.75 C-8.10406892 18.72310784 -9.58327483 18.70365379 -11.0625 18.6875 C-11.88621094 18.67589844 -12.70992187 18.66429688 -13.55859375 18.65234375 C-15.61663938 18.51732652 -15.61663938 18.51732652 -16.625 19.75 Z M-16.625 43.75 C-16.625 56.62 -16.625 69.49 -16.625 82.75 C-13.95399717 84.08550141 -11.91268776 83.87714001 -8.921875 83.87939453 C-7.72723633 83.88254669 -6.53259766 83.88569885 -5.30175781 83.88894653 C-3.3580127 83.88591019 -3.3580127 83.88591019 -1.375 83.8828125 C-0.03743472 83.88348589 1.30013045 83.88445621 2.63769531 83.88571167 C5.44206913 83.88718698 8.24641112 83.88503943 11.05078125 83.88037109 C14.6489719 83.87467389 18.24708797 83.87795378 21.84527588 83.88394356 C24.60759037 83.88755366 27.36988713 83.88640851 30.13220215 83.88381577 C32.10538786 83.88282237 34.07857426 83.8858642 36.05175781 83.88894653 C37.24639648 83.88579437 38.44103516 83.88264221 39.671875 83.87939453 C40.72729492 83.87859894 41.78271484 83.87780334 42.87011719 83.87698364 C45.37331465 83.91807422 45.37331465 83.91807422 47.375 82.75 C47.375 69.88 47.375 57.01 47.375 43.75 C26.255 43.75 5.135 43.75 -16.625 43.75 Z " fill="#000000" transform="translate(34.625,3.25)"/>
</svg>
