<?xml version="1.0" encoding="UTF-8"?>
<svg xmlns="http://www.w3.org/2000/svg" xmlns:xlink="http://www.w3.org/1999/xlink" width="100px" height="px" viewBox="0 0 100 100" version="1.1">
<g id="surface1">
<path style=" stroke:none;fill-rule:nonzero;fill:#ffffff;fill-opacity:1;" d="M 50 15.164062 C 37.980469 15.164062 28.203125 24.941406 28.203125 36.960938 C 28.203125 48.980469 37.980469 58.757812 50 58.757812 C 62.019531 58.757812 71.796875 48.980469 71.796875 36.960938 C 71.796875 24.941406 62.019531 15.164062 50 15.164062 Z M 50 52.894531 C 41.214844 52.894531 34.066406 45.746094 34.066406 36.960938 C 34.066406 28.175781 41.214844 21.027344 50 21.027344 C 58.785156 21.027344 65.933594 28.175781 65.933594 36.960938 C 65.933594 45.746094 58.785156 52.894531 50 52.894531 Z M 50 52.894531 "/>
<path style=" stroke:none;fill-rule:nonzero;fill:#ffffff;fill-opacity:1;" d="M 50 0 C 29.621094 0 13.039062 16.582031 13.039062 36.960938 C 13.039062 48.714844 22.894531 66.226562 28.773438 75.617188 C 32.636719 81.796875 36.792969 87.675781 40.46875 92.175781 C 46.371094 99.394531 48.484375 100 50 100 C 51.539062 100 53.535156 99.394531 59.417969 92.171875 C 63.101562 87.644531 67.257812 81.769531 71.121094 75.621094 C 77.035156 66.207031 86.960938 48.664062 86.960938 36.960938 C 86.960938 16.582031 70.378906 0 50 0 Z M 67.058594 71.058594 C 59.476562 83.363281 52.515625 91.675781 49.964844 93.800781 C 47.402344 91.742188 40.554688 83.625 32.867188 71.09375 C 23.992188 56.628906 18.902344 44.1875 18.902344 36.960938 C 18.902344 19.8125 32.851562 5.863281 50 5.863281 C 67.148438 5.863281 81.097656 19.8125 81.097656 36.960938 C 81.097656 44.144531 75.980469 56.574219 67.058594 71.058594 Z M 67.058594 71.058594 "/>
</g>
</svg>
