<svg id="visual" viewBox="0 0 900 600" width="900" height="600" xmlns="http://www.w3.org/2000/svg" xmlns:xlink="http://www.w3.org/1999/xlink" version="1.1"><g transform="translate(403.83852961612513 327.06878695655485)"><path d="M61.1 -157.5C67.9 -101.9 54.2 -62.7 103.2 -39.2C152.1 -15.6 263.5 -7.8 302.5 22.5C341.5 52.8 308 105.7 271.1 150C234.2 194.3 193.8 230.1 148.1 235C102.3 239.9 51.2 214 -1.7 216.8C-54.5 219.7 -109 251.5 -130.1 232.3C-151.1 213.1 -138.8 143.1 -119.7 95.9C-100.6 48.7 -74.8 24.3 -104 -16.8C-133.1 -58 -217.3 -116 -226.7 -146.5C-236.1 -176.9 -170.8 -179.8 -120.6 -210.3C-70.3 -240.8 -35.2 -298.9 -4 -292C27.2 -285.1 54.3 -213.1 61.1 -157.5" fill="#f2f5fb"></path></g></svg>